<svg id="svg" version="1.1" width="400" height="411.53846153846155" viewBox="0 0 400 411.53846153846155" xmlns="http://www.w3.org/2000/svg" xmlns:xlink="http://www.w3.org/1999/xlink" ><g id="svgg"><path id="path0" d="M181.200 42.609 C 176.473 43.265,172.046 44.264,165.600 46.131 C 162.850 46.927,158.530 48.134,156.000 48.813 C 152.821 49.665,150.956 50.400,149.963 51.192 C 148.180 52.612,146.291 53.442,142.276 54.566 C 139.888 55.234,138.684 55.843,137.167 57.150 C 136.075 58.091,133.672 59.558,131.827 60.410 C 129.981 61.263,127.562 62.768,126.451 63.755 C 125.340 64.742,123.638 65.899,122.670 66.328 C 121.702 66.756,120.026 67.999,118.946 69.090 C 117.867 70.182,116.267 71.527,115.392 72.080 C 113.583 73.224,101.991 84.582,100.188 86.978 C 99.534 87.846,98.244 89.255,97.320 90.110 C 96.396 90.966,95.238 92.495,94.748 93.508 C 94.257 94.522,92.982 96.316,91.914 97.495 C 90.847 98.674,89.556 100.575,89.046 101.719 C 88.537 102.864,87.103 105.280,85.859 107.089 C 84.432 109.166,83.227 111.517,82.591 113.465 C 82.032 115.179,80.637 118.013,79.454 119.839 C 77.892 122.250,77.192 123.802,76.825 125.663 C 76.074 129.472,75.326 131.567,73.848 134.000 C 72.013 137.021,71.163 141.350,68.857 159.400 C 68.036 165.830,68.302 180.565,69.315 184.800 C 69.657 186.230,70.319 190.100,70.786 193.400 C 71.588 199.075,71.751 199.638,73.795 203.800 C 75.066 206.390,76.313 209.681,76.825 211.800 C 77.719 215.501,78.650 217.703,80.206 219.800 C 80.696 220.460,81.692 222.620,82.419 224.600 C 83.146 226.580,84.476 229.370,85.374 230.800 C 86.272 232.230,87.618 234.840,88.365 236.600 C 89.971 240.383,90.958 242.146,92.431 243.866 C 93.027 244.562,93.739 245.822,94.012 246.666 C 94.666 248.687,96.158 251.357,97.757 253.372 C 99.525 255.600,100.193 256.739,100.777 258.520 C 101.051 259.355,102.176 261.065,103.278 262.320 C 104.380 263.574,105.980 265.986,106.835 267.681 C 107.690 269.375,109.212 271.687,110.217 272.819 C 111.221 273.950,112.472 275.845,112.996 277.029 C 113.520 278.214,114.647 279.862,115.501 280.692 C 117.501 282.634,118.533 284.462,119.178 287.200 C 120.037 290.849,125.018 299.530,128.535 303.507 C 129.261 304.328,130.275 305.720,130.789 306.600 C 131.302 307.480,132.482 309.010,133.411 310.000 C 134.340 310.990,135.758 312.848,136.563 314.128 C 137.368 315.408,138.718 317.118,139.565 317.928 C 140.411 318.738,141.961 320.660,143.009 322.200 C 144.056 323.740,145.681 325.829,146.620 326.843 C 147.558 327.857,148.687 329.387,149.127 330.243 C 149.568 331.099,150.855 332.682,151.987 333.761 C 153.119 334.839,154.419 336.459,154.876 337.361 C 155.333 338.262,156.606 339.809,157.704 340.799 C 158.803 341.788,160.300 343.533,161.032 344.677 C 161.764 345.821,162.821 347.057,163.381 347.424 C 163.941 347.791,165.074 349.016,165.898 350.146 C 167.394 352.194,168.369 353.314,174.800 360.367 C 176.670 362.417,178.679 364.818,179.265 365.702 C 179.851 366.585,181.381 368.327,182.665 369.573 C 183.949 370.819,185.270 372.370,185.600 373.019 C 187.211 376.190,189.628 377.211,196.600 377.664 C 206.396 378.301,210.325 377.219,213.212 373.091 C 213.709 372.381,214.854 371.253,215.757 370.584 C 216.661 369.916,217.760 368.750,218.200 367.994 C 218.640 367.238,219.980 365.652,221.178 364.470 C 222.376 363.288,223.906 361.552,224.578 360.613 C 225.250 359.673,226.393 358.408,227.118 357.801 C 227.843 357.195,229.103 355.755,229.918 354.602 C 231.288 352.664,232.955 350.636,239.420 343.042 C 240.751 341.479,242.589 339.182,243.504 337.939 C 244.419 336.695,245.706 335.294,246.362 334.827 C 247.019 334.359,248.198 332.920,248.982 331.629 C 249.766 330.338,251.049 328.771,251.833 328.146 C 252.616 327.522,253.901 325.928,254.687 324.605 C 255.473 323.282,256.877 321.390,257.805 320.400 C 258.734 319.410,260.266 317.430,261.209 316.000 C 262.153 314.570,263.777 312.487,264.818 311.371 C 265.860 310.255,267.076 308.635,267.522 307.771 C 267.968 306.907,269.083 305.480,270.001 304.600 C 270.918 303.720,272.126 302.100,272.685 301.000 C 273.244 299.900,274.400 298.238,275.253 297.307 C 277.132 295.256,278.458 292.368,279.352 288.383 C 279.923 285.833,280.352 284.983,282.310 282.529 C 283.570 280.950,284.953 278.970,285.384 278.129 C 285.816 277.288,287.040 275.656,288.106 274.501 C 289.171 273.347,290.492 271.387,291.041 270.145 C 291.590 268.904,292.841 266.846,293.820 265.574 C 294.800 264.301,296.357 261.851,297.282 260.130 C 298.206 258.408,299.496 256.461,300.148 255.802 C 300.800 255.144,301.763 253.614,302.288 252.402 C 304.011 248.424,304.558 247.426,306.233 245.200 C 307.143 243.990,308.419 241.737,309.067 240.192 C 309.715 238.648,310.974 236.308,311.866 234.992 C 314.031 231.798,315.036 229.730,315.362 227.800 C 315.768 225.396,316.393 224.036,318.272 221.472 C 319.210 220.191,320.252 218.166,320.589 216.972 C 320.925 215.777,321.470 213.855,321.801 212.700 C 322.131 211.545,322.846 209.880,323.390 209.000 C 325.245 205.995,325.885 204.199,326.956 199.000 C 327.545 196.140,328.378 192.450,328.806 190.800 C 329.235 189.150,329.700 186.630,329.841 185.200 C 329.981 183.770,330.433 181.160,330.845 179.400 C 331.897 174.908,331.893 165.463,330.838 161.000 C 330.422 159.240,329.958 156.810,329.807 155.600 C 329.465 152.851,328.557 147.448,328.050 145.144 C 327.839 144.185,327.359 141.600,326.982 139.400 C 326.166 134.631,325.018 130.788,324.031 129.522 C 322.866 128.027,322.209 126.437,321.003 122.200 C 319.928 118.427,319.141 116.803,317.533 115.048 C 317.153 114.634,316.370 113.104,315.792 111.648 C 314.492 108.377,312.984 105.715,311.685 104.400 C 311.142 103.850,310.097 102.138,309.363 100.595 C 308.628 99.052,307.340 97.072,306.499 96.195 C 305.658 95.318,304.410 93.790,303.726 92.800 C 303.042 91.810,301.723 90.190,300.796 89.200 C 299.868 88.210,298.056 86.025,296.770 84.345 C 295.484 82.664,293.390 80.414,292.116 79.345 C 290.842 78.275,288.900 76.564,287.800 75.542 C 286.700 74.519,284.900 73.013,283.800 72.194 C 282.700 71.375,281.080 70.025,280.200 69.193 C 279.320 68.362,277.520 67.002,276.200 66.173 C 274.880 65.344,272.990 63.960,272.000 63.099 C 271.010 62.238,268.636 60.849,266.724 60.013 C 264.812 59.177,262.431 57.823,261.433 57.006 C 260.260 56.045,258.378 55.106,256.110 54.351 C 254.179 53.708,251.610 52.580,250.400 51.844 C 246.990 49.770,246.802 49.696,241.135 48.209 C 238.201 47.439,233.769 46.178,231.287 45.408 C 220.946 42.196,194.738 40.732,181.200 42.609 M205.909 79.351 C 207.829 80.094,210.120 80.929,211.000 81.207 C 216.223 82.857,216.785 83.218,221.573 88.006 C 225.262 91.695,226.392 93.089,226.945 94.638 C 229.498 101.785,231.988 104.550,237.710 106.592 C 241.305 107.875,249.804 115.316,251.424 118.600 C 251.858 119.480,252.802 121.224,253.522 122.476 C 256.275 127.262,256.800 129.710,256.802 137.770 C 256.804 146.052,256.923 146.388,260.466 148.099 C 265.054 150.315,273.532 159.109,275.471 163.664 C 276.065 165.059,277.293 167.370,278.200 168.800 C 282.784 176.026,282.682 195.786,278.023 202.979 C 277.161 204.311,275.834 206.772,275.074 208.448 C 273.408 212.124,264.873 221.035,261.360 222.766 C 260.282 223.297,258.466 224.322,257.324 225.045 C 250.804 229.173,243.761 230.169,222.600 229.956 C 207.732 229.807,207.830 229.774,206.278 235.400 C 205.713 237.449,205.681 238.355,206.057 241.600 C 206.731 247.423,206.238 289.855,205.475 291.682 C 203.107 297.350,196.605 298.078,194.328 292.931 C 192.997 289.921,191.797 240.346,193.008 238.386 C 193.583 237.456,191.630 232.463,190.293 231.446 C 188.335 229.956,187.762 229.903,173.068 229.829 C 153.520 229.731,147.361 228.858,142.774 225.536 C 141.950 224.938,140.137 223.875,138.746 223.173 C 136.011 221.792,130.237 216.681,127.795 213.477 C 126.989 212.420,125.806 211.020,125.167 210.366 C 123.642 208.806,122.613 206.736,121.796 203.586 C 121.431 202.174,120.355 199.305,119.406 197.210 C 115.989 189.665,116.001 181.003,119.440 173.694 C 120.409 171.634,121.405 169.106,121.653 168.075 C 122.336 165.245,123.857 162.405,125.764 160.400 C 126.706 159.410,127.899 157.970,128.414 157.200 C 128.930 156.430,129.804 155.440,130.357 155.000 C 130.910 154.560,132.554 153.120,134.012 151.800 C 135.469 150.480,137.782 148.727,139.151 147.905 C 142.908 145.648,144.017 142.148,142.901 136.072 C 141.953 130.907,145.640 120.968,150.524 115.527 C 152.463 113.367,154.182 111.600,154.344 111.600 C 154.507 111.600,155.652 110.699,156.888 109.597 C 158.429 108.223,160.245 107.136,162.668 106.138 C 167.224 104.261,171.200 99.724,171.200 96.402 C 171.200 95.775,176.449 89.091,177.955 87.800 C 178.725 87.140,180.163 85.823,181.150 84.873 C 183.416 82.692,184.358 82.213,188.690 81.038 C 190.620 80.514,193.190 79.618,194.400 79.047 C 197.713 77.482,201.327 77.578,205.909 79.351 M198.200 91.458 C 194.420 92.165,193.189 92.532,192.731 93.090 C 192.439 93.446,191.030 94.498,189.600 95.429 C 186.175 97.657,185.444 98.502,184.268 101.600 C 183.252 104.277,181.653 108.242,180.506 110.927 C 179.040 114.362,177.413 115.413,168.000 119.011 C 165.910 119.810,163.789 120.628,163.286 120.829 C 162.783 121.031,161.883 122.022,161.286 123.032 C 160.689 124.043,159.449 126.026,158.532 127.440 C 154.978 132.918,154.697 138.686,157.805 142.406 C 162.104 147.551,159.872 154.178,153.221 156.021 C 149.133 157.154,147.097 158.160,144.847 160.158 C 143.710 161.168,142.072 162.355,141.205 162.797 C 139.244 163.798,138.255 164.845,137.249 166.986 C 136.816 167.905,135.618 169.892,134.585 171.400 C 129.555 178.748,129.537 193.466,134.550 200.061 C 135.277 201.017,136.370 202.700,136.978 203.800 C 138.432 206.431,138.622 206.644,141.200 208.544 C 142.410 209.436,143.940 210.729,144.600 211.417 C 148.954 215.957,155.303 216.546,200.000 216.554 C 244.287 216.562,249.070 216.112,254.360 211.447 C 255.387 210.541,257.050 209.286,258.055 208.657 C 259.236 207.919,260.363 206.720,261.241 205.269 C 261.989 204.033,263.261 202.258,264.070 201.322 C 265.697 199.439,265.643 199.570,266.744 194.800 C 268.952 185.232,267.560 173.618,263.657 169.041 C 262.856 168.101,261.625 166.501,260.923 165.486 C 260.221 164.472,258.871 163.145,257.923 162.537 C 256.975 161.930,255.289 160.593,254.176 159.566 C 252.483 158.004,251.696 157.595,249.358 157.063 C 241.562 155.290,238.569 150.111,241.462 143.400 C 245.440 134.174,241.299 122.461,233.112 119.781 C 231.951 119.401,230.156 118.667,229.125 118.151 C 228.094 117.635,226.083 116.773,224.657 116.236 C 219.949 114.464,218.691 112.878,217.973 107.809 C 217.617 105.300,216.856 103.699,214.829 101.200 C 214.383 100.650,214.014 100.046,214.009 99.858 C 213.987 99.028,211.363 96.296,209.854 95.532 C 208.944 95.071,207.570 94.203,206.800 93.603 C 204.691 91.961,200.758 90.980,198.200 91.458 " stroke="none" fill="#201f43" fill-rule="evenodd"></path><path id="path1" d="M0.000 205.600 L 0.000 411.200 200.000 411.200 L 400.000 411.200 400.000 205.600 L 400.000 0.000 200.000 0.000 L 0.000 0.000 0.000 205.600 M215.782 42.425 C 222.110 43.034,226.140 43.809,231.287 45.408 C 233.769 46.178,238.201 47.439,241.135 48.209 C 246.802 49.696,246.990 49.770,250.400 51.844 C 251.610 52.580,254.179 53.708,256.110 54.351 C 258.378 55.106,260.260 56.045,261.433 57.006 C 262.431 57.823,264.812 59.177,266.724 60.013 C 268.636 60.849,271.010 62.238,272.000 63.099 C 272.990 63.960,274.880 65.344,276.200 66.173 C 277.520 67.002,279.320 68.362,280.200 69.193 C 281.080 70.025,282.700 71.375,283.800 72.194 C 284.900 73.013,286.700 74.519,287.800 75.542 C 288.900 76.564,290.842 78.275,292.116 79.345 C 293.390 80.414,295.484 82.664,296.770 84.345 C 298.056 86.025,299.868 88.210,300.796 89.200 C 301.723 90.190,303.042 91.810,303.726 92.800 C 304.410 93.790,305.658 95.318,306.499 96.195 C 307.340 97.072,308.628 99.052,309.363 100.595 C 310.097 102.138,311.142 103.850,311.685 104.400 C 312.984 105.715,314.492 108.377,315.792 111.648 C 316.370 113.104,317.153 114.634,317.533 115.048 C 319.141 116.803,319.928 118.427,321.003 122.200 C 322.209 126.437,322.866 128.027,324.031 129.522 C 325.018 130.788,326.166 134.631,326.982 139.400 C 327.359 141.600,327.839 144.185,328.050 145.144 C 328.557 147.448,329.465 152.851,329.807 155.600 C 329.958 156.810,330.422 159.240,330.838 161.000 C 331.893 165.463,331.897 174.908,330.845 179.400 C 330.433 181.160,329.981 183.770,329.841 185.200 C 329.700 186.630,329.235 189.150,328.806 190.800 C 328.378 192.450,327.545 196.140,326.956 199.000 C 325.885 204.199,325.245 205.995,323.390 209.000 C 322.846 209.880,322.131 211.545,321.801 212.700 C 321.470 213.855,320.925 215.777,320.589 216.972 C 320.252 218.166,319.210 220.191,318.272 221.472 C 316.393 224.036,315.768 225.396,315.362 227.800 C 315.036 229.730,314.031 231.798,311.866 234.992 C 310.974 236.308,309.715 238.648,309.067 240.192 C 308.419 241.737,307.143 243.990,306.233 245.200 C 304.558 247.426,304.011 248.424,302.288 252.402 C 301.763 253.614,300.800 255.144,300.148 255.802 C 299.496 256.461,298.206 258.408,297.282 260.130 C 296.357 261.851,294.800 264.301,293.820 265.574 C 292.841 266.846,291.590 268.904,291.041 270.145 C 290.492 271.387,289.171 273.347,288.106 274.501 C 287.040 275.656,285.816 277.288,285.384 278.129 C 284.953 278.970,283.570 280.950,282.310 282.529 C 280.352 284.983,279.923 285.833,279.352 288.383 C 278.458 292.368,277.132 295.256,275.253 297.307 C 274.400 298.238,273.244 299.900,272.685 301.000 C 272.126 302.100,270.918 303.720,270.001 304.600 C 269.083 305.480,267.968 306.907,267.522 307.771 C 267.076 308.635,265.860 310.255,264.818 311.371 C 263.777 312.487,262.153 314.570,261.209 316.000 C 260.266 317.430,258.734 319.410,257.805 320.400 C 256.877 321.390,255.473 323.282,254.687 324.605 C 253.901 325.928,252.616 327.522,251.833 328.146 C 251.049 328.771,249.766 330.338,248.982 331.629 C 248.198 332.920,247.019 334.359,246.362 334.827 C 245.706 335.294,244.419 336.695,243.504 337.939 C 242.589 339.182,240.751 341.479,239.420 343.042 C 232.955 350.636,231.288 352.664,229.918 354.602 C 229.103 355.755,227.843 357.195,227.118 357.801 C 226.393 358.408,225.250 359.673,224.578 360.613 C 223.906 361.552,222.376 363.288,221.178 364.470 C 219.980 365.652,218.640 367.238,218.200 367.994 C 217.760 368.750,216.661 369.916,215.757 370.584 C 214.854 371.253,213.709 372.381,213.212 373.091 C 210.325 377.219,206.396 378.301,196.600 377.664 C 189.628 377.211,187.211 376.190,185.600 373.019 C 185.270 372.370,183.949 370.819,182.665 369.573 C 181.381 368.327,179.851 366.585,179.265 365.702 C 178.679 364.818,176.670 362.417,174.800 360.367 C 168.369 353.314,167.394 352.194,165.898 350.146 C 165.074 349.016,163.941 347.791,163.381 347.424 C 162.821 347.057,161.764 345.821,161.032 344.677 C 160.300 343.533,158.803 341.788,157.704 340.799 C 156.606 339.809,155.333 338.262,154.876 337.361 C 154.419 336.459,153.119 334.839,151.987 333.761 C 150.855 332.682,149.568 331.099,149.127 330.243 C 148.687 329.387,147.558 327.857,146.620 326.843 C 145.681 325.829,144.056 323.740,143.009 322.200 C 141.961 320.660,140.411 318.738,139.565 317.928 C 138.718 317.118,137.368 315.408,136.563 314.128 C 135.758 312.848,134.340 310.990,133.411 310.000 C 132.482 309.010,131.302 307.480,130.789 306.600 C 130.275 305.720,129.261 304.328,128.535 303.507 C 125.018 299.530,120.037 290.849,119.178 287.200 C 118.533 284.462,117.501 282.634,115.501 280.692 C 114.647 279.862,113.520 278.214,112.996 277.029 C 112.472 275.845,111.221 273.950,110.217 272.819 C 109.212 271.687,107.690 269.375,106.835 267.681 C 105.980 265.986,104.380 263.574,103.278 262.320 C 102.176 261.065,101.051 259.355,100.777 258.520 C 100.193 256.739,99.525 255.600,97.757 253.372 C 96.158 251.357,94.666 248.687,94.012 246.666 C 93.739 245.822,93.027 244.562,92.431 243.866 C 90.958 242.146,89.971 240.383,88.365 236.600 C 87.618 234.840,86.272 232.230,85.374 230.800 C 84.476 229.370,83.146 226.580,82.419 224.600 C 81.692 222.620,80.696 220.460,80.206 219.800 C 78.650 217.703,77.719 215.501,76.825 211.800 C 76.313 209.681,75.066 206.390,73.795 203.800 C 71.751 199.638,71.588 199.075,70.786 193.400 C 70.319 190.100,69.657 186.230,69.315 184.800 C 68.302 180.565,68.036 165.830,68.857 159.400 C 71.163 141.350,72.013 137.021,73.848 134.000 C 75.326 131.567,76.074 129.472,76.825 125.663 C 77.192 123.802,77.892 122.250,79.454 119.839 C 80.637 118.013,82.032 115.179,82.591 113.465 C 83.227 111.517,84.432 109.166,85.859 107.089 C 87.103 105.280,88.537 102.864,89.046 101.719 C 89.556 100.575,90.847 98.674,91.914 97.495 C 92.982 96.316,94.257 94.522,94.748 93.508 C 95.238 92.495,96.396 90.966,97.320 90.110 C 98.244 89.255,99.534 87.846,100.188 86.978 C 101.991 84.582,113.583 73.224,115.392 72.080 C 116.267 71.527,117.867 70.182,118.946 69.090 C 120.026 67.999,121.702 66.756,122.670 66.328 C 123.638 65.899,125.340 64.742,126.451 63.755 C 127.562 62.768,129.981 61.263,131.827 60.410 C 133.672 59.558,136.075 58.091,137.167 57.150 C 138.684 55.843,139.888 55.234,142.276 54.566 C 146.291 53.442,148.180 52.612,149.963 51.192 C 150.956 50.400,152.821 49.665,156.000 48.813 C 158.530 48.134,162.850 46.927,165.600 46.131 C 172.046 44.264,176.473 43.265,181.200 42.609 C 185.954 41.950,209.538 41.824,215.782 42.425 M194.400 79.047 C 193.190 79.618,190.620 80.514,188.690 81.038 C 184.358 82.213,183.416 82.692,181.150 84.873 C 180.163 85.823,178.725 87.140,177.955 87.800 C 176.449 89.091,171.200 95.775,171.200 96.402 C 171.200 99.724,167.224 104.261,162.668 106.138 C 160.245 107.136,158.429 108.223,156.888 109.597 C 155.652 110.699,154.507 111.600,154.344 111.600 C 154.182 111.600,152.463 113.367,150.524 115.527 C 145.640 120.968,141.953 130.907,142.901 136.072 C 144.017 142.148,142.908 145.648,139.151 147.905 C 137.782 148.727,135.469 150.480,134.012 151.800 C 132.554 153.120,130.910 154.560,130.357 155.000 C 129.804 155.440,128.930 156.430,128.414 157.200 C 127.899 157.970,126.706 159.410,125.764 160.400 C 123.857 162.405,122.336 165.245,121.653 168.075 C 121.405 169.106,120.409 171.634,119.440 173.694 C 116.001 181.003,115.989 189.665,119.406 197.210 C 120.355 199.305,121.431 202.174,121.796 203.586 C 122.613 206.736,123.642 208.806,125.167 210.366 C 125.806 211.020,126.989 212.420,127.795 213.477 C 130.237 216.681,136.011 221.792,138.746 223.173 C 140.137 223.875,141.950 224.938,142.774 225.536 C 147.361 228.858,153.520 229.731,173.068 229.829 C 187.762 229.903,188.335 229.956,190.293 231.446 C 191.630 232.463,193.583 237.456,193.008 238.386 C 191.797 240.346,192.997 289.921,194.328 292.931 C 196.605 298.078,203.107 297.350,205.475 291.682 C 206.238 289.855,206.731 247.423,206.057 241.600 C 205.681 238.355,205.713 237.449,206.278 235.400 C 207.830 229.774,207.732 229.807,222.600 229.956 C 243.761 230.169,250.804 229.173,257.324 225.045 C 258.466 224.322,260.282 223.297,261.360 222.766 C 264.873 221.035,273.408 212.124,275.074 208.448 C 275.834 206.772,277.161 204.311,278.023 202.979 C 280.894 198.546,281.850 191.928,281.225 180.800 C 280.842 173.986,280.415 172.290,278.200 168.800 C 277.293 167.370,276.065 165.059,275.471 163.664 C 273.532 159.109,265.054 150.315,260.466 148.099 C 256.923 146.388,256.804 146.052,256.802 137.770 C 256.800 129.710,256.275 127.262,253.522 122.476 C 252.802 121.224,251.858 119.480,251.424 118.600 C 249.804 115.316,241.305 107.875,237.710 106.592 C 231.988 104.550,229.498 101.785,226.945 94.638 C 226.392 93.089,225.262 91.695,221.573 88.006 C 216.785 83.218,216.223 82.857,211.000 81.207 C 210.120 80.929,207.829 80.094,205.909 79.351 C 201.327 77.578,197.713 77.482,194.400 79.047 M203.980 92.052 C 204.761 92.306,206.030 93.004,206.800 93.603 C 207.570 94.203,208.944 95.071,209.854 95.532 C 211.363 96.296,213.987 99.028,214.009 99.858 C 214.014 100.046,214.383 100.650,214.829 101.200 C 216.856 103.699,217.617 105.300,217.973 107.809 C 218.691 112.878,219.949 114.464,224.657 116.236 C 226.083 116.773,228.094 117.635,229.125 118.151 C 230.156 118.667,231.951 119.401,233.112 119.781 C 241.299 122.461,245.440 134.174,241.462 143.400 C 238.569 150.111,241.562 155.290,249.358 157.063 C 251.696 157.595,252.483 158.004,254.176 159.566 C 255.289 160.593,256.975 161.930,257.923 162.537 C 258.871 163.145,260.221 164.472,260.923 165.486 C 261.625 166.501,262.856 168.101,263.657 169.041 C 267.560 173.618,268.952 185.232,266.744 194.800 C 265.643 199.570,265.697 199.439,264.070 201.322 C 263.261 202.258,261.989 204.033,261.241 205.269 C 260.363 206.720,259.236 207.919,258.055 208.657 C 257.050 209.286,255.387 210.541,254.360 211.447 C 249.070 216.112,244.287 216.562,200.000 216.554 C 155.303 216.546,148.954 215.957,144.600 211.417 C 143.940 210.729,142.410 209.436,141.200 208.544 C 138.622 206.644,138.432 206.431,136.978 203.800 C 136.370 202.700,135.277 201.017,134.550 200.061 C 129.537 193.466,129.555 178.748,134.585 171.400 C 135.618 169.892,136.816 167.905,137.249 166.986 C 138.255 164.845,139.244 163.798,141.205 162.797 C 142.072 162.355,143.710 161.168,144.847 160.158 C 147.097 158.160,149.133 157.154,153.221 156.021 C 159.872 154.178,162.104 147.551,157.805 142.406 C 154.697 138.686,154.978 132.918,158.532 127.440 C 159.449 126.026,160.689 124.043,161.286 123.032 C 161.883 122.022,162.783 121.031,163.286 120.829 C 163.789 120.628,165.910 119.810,168.000 119.011 C 177.413 115.413,179.040 114.362,180.506 110.927 C 181.653 108.242,183.252 104.277,184.268 101.600 C 185.444 98.502,186.175 97.657,189.600 95.429 C 191.030 94.498,192.439 93.446,192.731 93.090 C 193.189 92.532,194.420 92.165,198.200 91.458 C 199.418 91.231,202.391 91.536,203.980 92.052 " stroke="none" fill="#00c9c8" fill-rule="evenodd"></path></g></svg>