<svg id="svg" version="1.1" width="400" height="414.65968586387436" viewBox="0 0 400 414.65968586387436" xmlns="http://www.w3.org/2000/svg" xmlns:xlink="http://www.w3.org/1999/xlink" ><g id="svgg"><path id="path0" d="M180.843 27.257 C 176.071 27.756,170.357 28.967,163.200 30.996 C 159.790 31.963,156.100 32.954,155.000 33.198 C 150.521 34.192,146.428 35.685,144.180 37.144 C 141.820 38.675,139.088 39.785,134.746 40.977 C 133.179 41.407,131.896 42.131,130.538 43.351 C 129.421 44.356,126.896 45.897,124.634 46.954 C 122.215 48.084,119.950 49.486,118.792 50.569 C 117.752 51.542,115.809 52.889,114.475 53.562 C 113.058 54.278,111.505 55.463,110.744 56.410 C 110.026 57.303,108.484 58.580,107.315 59.249 C 106.147 59.917,104.351 61.437,103.325 62.626 C 102.298 63.815,100.775 65.240,99.939 65.793 C 99.104 66.346,97.677 67.738,96.769 68.888 C 95.860 70.037,94.456 71.463,93.649 72.056 C 92.842 72.650,91.564 74.005,90.809 75.068 C 90.054 76.130,88.415 78.080,87.167 79.400 C 85.919 80.720,84.493 82.610,83.999 83.600 C 83.504 84.590,82.251 86.304,81.214 87.408 C 80.177 88.512,78.768 90.582,78.082 92.008 C 76.938 94.386,76.013 95.891,73.095 100.122 C 72.518 100.959,71.569 103.117,70.986 104.917 C 70.349 106.887,69.058 109.523,67.744 111.538 C 66.300 113.754,65.363 115.718,64.976 117.344 C 63.844 122.100,63.110 124.224,61.753 126.681 C 60.154 129.576,59.119 133.510,58.197 140.200 C 57.833 142.840,57.090 147.790,56.545 151.200 C 55.686 156.572,55.559 158.629,55.590 166.600 C 55.628 176.210,55.706 177.089,57.342 186.200 C 57.895 189.280,58.612 193.472,58.937 195.515 C 59.420 198.557,59.932 200.035,61.764 203.668 C 62.994 206.109,64.003 208.397,64.007 208.753 C 64.027 210.637,66.473 217.457,67.936 219.709 C 68.826 221.079,70.100 223.686,70.767 225.501 C 72.186 229.362,72.949 230.938,74.220 232.638 C 74.730 233.319,76.088 236.019,77.239 238.638 C 78.391 241.257,80.001 244.300,80.817 245.400 C 81.634 246.500,83.122 249.124,84.124 251.230 C 85.127 253.337,86.617 255.857,87.436 256.830 C 88.254 257.804,89.686 260.220,90.617 262.200 C 91.614 264.322,92.913 266.375,93.779 267.200 C 94.588 267.970,96.170 270.310,97.294 272.400 C 98.419 274.490,100.144 277.100,101.127 278.200 C 102.110 279.300,103.406 281.280,104.005 282.600 C 104.640 283.997,106.016 285.943,107.296 287.256 C 109.411 289.423,111.200 293.087,111.200 295.249 C 111.200 296.886,117.772 307.900,120.843 311.410 C 121.868 312.582,123.258 314.499,123.930 315.670 C 124.603 316.842,125.989 318.610,127.010 319.600 C 128.032 320.590,129.287 322.210,129.800 323.200 C 130.313 324.190,131.576 325.810,132.606 326.800 C 133.636 327.790,135.396 329.950,136.518 331.600 C 137.640 333.250,139.309 335.410,140.227 336.400 C 141.145 337.390,142.721 339.493,143.729 341.074 C 144.736 342.654,146.123 344.363,146.811 344.871 C 147.498 345.380,148.666 346.786,149.405 347.998 C 150.145 349.209,151.678 351.100,152.812 352.200 C 153.946 353.300,155.560 355.190,156.398 356.400 C 157.236 357.610,158.668 359.298,159.580 360.152 C 160.493 361.006,161.725 362.356,162.319 363.152 C 163.788 365.120,171.208 373.514,172.792 375.000 C 173.496 375.660,175.059 377.596,176.265 379.301 C 177.470 381.007,179.092 382.887,179.868 383.479 C 180.644 384.071,182.116 385.823,183.139 387.373 C 187.862 394.525,207.683 395.126,212.748 388.271 C 213.643 387.059,215.201 385.475,216.209 384.750 C 217.252 384.002,218.652 382.432,219.453 381.113 C 220.228 379.837,221.501 378.306,222.282 377.710 C 223.064 377.114,224.425 375.631,225.307 374.413 C 226.190 373.196,227.704 371.505,228.673 370.655 C 229.641 369.804,231.068 368.118,231.843 366.906 C 232.618 365.695,234.460 363.420,235.938 361.852 C 237.415 360.283,239.055 358.370,239.582 357.600 C 240.109 356.830,241.468 355.210,242.603 354.000 C 243.737 352.790,245.146 351.038,245.733 350.106 C 246.321 349.174,247.805 347.464,249.030 346.306 C 250.255 345.148,251.876 343.183,252.632 341.941 C 253.389 340.699,254.645 339.174,255.423 338.554 C 256.202 337.933,257.578 336.250,258.482 334.813 C 259.386 333.376,261.059 331.120,262.200 329.800 C 263.341 328.480,265.046 326.251,265.988 324.846 C 266.931 323.442,268.406 321.552,269.265 320.646 C 270.124 319.741,271.396 318.100,272.090 317.000 C 272.784 315.900,274.198 314.087,275.232 312.971 C 276.266 311.855,277.492 310.196,277.956 309.286 C 278.421 308.375,279.599 306.650,280.575 305.452 C 282.995 302.481,284.156 300.048,285.284 295.585 C 286.120 292.276,286.505 291.473,288.347 289.200 C 289.507 287.770,291.063 285.520,291.807 284.200 C 292.550 282.880,293.907 281.080,294.821 280.200 C 295.735 279.320,297.156 277.236,297.978 275.568 C 298.801 273.901,300.359 271.381,301.441 269.968 C 302.523 268.556,304.158 265.960,305.074 264.200 C 305.991 262.440,307.310 260.460,308.006 259.800 C 309.445 258.435,310.109 257.284,311.042 254.537 C 311.666 252.700,312.668 251.027,315.788 246.613 C 316.561 245.520,317.561 243.518,318.012 242.164 C 318.462 240.811,319.559 238.735,320.449 237.552 C 322.736 234.513,324.247 231.372,324.816 228.479 C 325.108 226.995,325.810 225.241,326.553 224.138 C 327.239 223.121,328.300 221.549,328.911 220.646 C 329.522 219.744,330.199 218.284,330.416 217.402 C 331.777 211.870,332.258 210.534,333.830 207.914 C 335.200 205.631,335.805 204.004,336.623 200.400 C 337.198 197.870,338.181 193.550,338.809 190.800 C 339.436 188.050,340.161 184.096,340.420 182.013 C 340.679 179.931,341.160 177.411,341.490 176.413 C 342.661 172.876,342.648 161.765,341.468 156.600 C 340.915 154.180,340.172 150.130,339.816 147.600 C 337.885 133.855,335.726 125.022,333.363 121.192 C 332.613 119.978,332.000 118.759,332.000 118.485 C 332.000 116.622,329.028 109.079,327.626 107.382 C 326.760 106.334,325.594 104.192,324.994 102.548 C 323.888 99.515,321.505 95.463,320.203 94.400 C 319.799 94.070,318.867 92.483,318.132 90.874 C 317.383 89.233,315.953 87.038,314.875 85.874 C 313.819 84.733,312.262 82.810,311.417 81.600 C 310.572 80.390,309.634 79.254,309.334 79.077 C 309.033 78.899,307.335 76.872,305.561 74.573 C 303.786 72.274,301.059 69.270,299.501 67.897 C 297.944 66.523,295.574 64.399,294.235 63.176 C 292.896 61.953,290.990 60.340,290.000 59.592 C 289.010 58.844,287.254 57.383,286.098 56.344 C 284.942 55.306,282.872 53.783,281.498 52.961 C 280.124 52.138,278.094 50.622,276.987 49.592 C 275.880 48.562,274.260 47.488,273.387 47.205 C 271.047 46.445,266.838 44.171,264.927 42.634 C 263.920 41.824,261.929 40.865,259.927 40.226 C 258.097 39.642,255.700 38.638,254.600 37.995 C 250.876 35.817,249.084 35.109,243.435 33.581 C 240.336 32.743,236.540 31.676,235.000 31.210 C 222.997 27.578,216.210 26.793,197.400 26.860 C 190.140 26.885,182.689 27.064,180.843 27.257 M206.400 67.908 C 208.490 68.777,211.280 69.797,212.600 70.175 C 217.868 71.685,226.241 79.428,228.432 84.816 C 231.459 92.261,233.676 94.795,238.911 96.794 C 244.895 99.080,252.499 105.758,255.360 111.241 C 256.209 112.868,257.214 114.650,257.594 115.200 C 260.048 118.749,260.597 121.346,260.644 129.600 C 260.703 140.197,260.803 140.501,264.893 142.500 C 268.809 144.415,278.819 154.324,280.477 157.928 C 280.849 158.738,281.608 160.390,282.162 161.600 C 282.716 162.810,283.869 164.912,284.724 166.272 C 289.197 173.386,288.618 195.837,283.791 202.412 C 283.005 203.483,281.821 205.688,281.160 207.311 C 279.210 212.099,269.552 222.204,265.004 224.215 C 263.860 224.721,261.564 226.023,259.900 227.109 C 254.400 230.700,246.897 231.660,225.000 231.577 C 217.520 231.549,211.001 231.542,210.514 231.563 C 209.042 231.625,206.920 233.833,206.174 236.079 C 205.558 237.932,205.503 240.821,205.569 267.360 C 205.649 299.725,205.717 298.790,203.083 301.533 C 200.535 304.185,197.656 304.754,195.159 303.099 C 191.305 300.546,190.727 295.007,190.823 261.600 C 190.918 228.440,193.168 231.619,169.478 231.440 C 149.093 231.287,142.650 230.524,138.234 227.741 C 137.115 227.036,134.611 225.610,132.669 224.573 C 130.199 223.254,128.241 221.801,126.156 219.743 C 124.516 218.124,123.024 216.800,122.841 216.800 C 122.658 216.800,121.996 216.035,121.369 215.100 C 120.742 214.165,119.386 212.485,118.355 211.367 C 116.220 209.051,114.651 206.185,113.964 203.349 C 113.705 202.277,112.595 199.356,111.498 196.857 C 107.453 187.640,107.420 177.903,111.408 169.983 C 112.133 168.544,113.129 166.023,113.621 164.383 C 114.811 160.414,116.003 158.134,117.899 156.200 C 118.762 155.320,120.038 153.756,120.736 152.725 C 121.433 151.694,122.858 150.171,123.902 149.340 C 124.946 148.509,126.790 146.913,128.000 145.793 C 129.210 144.673,131.230 143.171,132.489 142.455 C 135.712 140.623,136.487 139.414,137.189 135.118 C 137.444 133.557,137.370 132.330,136.907 130.453 C 136.116 127.246,136.508 124.832,138.997 117.564 C 141.179 111.195,141.064 111.404,144.424 107.718 C 145.951 106.043,147.200 104.552,147.200 104.404 C 147.200 104.256,148.055 103.531,149.100 102.791 C 150.145 102.052,151.826 100.716,152.836 99.823 C 153.878 98.902,156.040 97.640,157.836 96.904 C 163.653 94.523,164.496 93.687,167.132 87.691 C 168.787 83.927,171.757 79.840,175.189 76.600 C 176.121 75.720,177.549 74.347,178.362 73.549 C 180.288 71.658,182.278 70.672,186.638 69.445 C 188.597 68.894,191.370 67.889,192.800 67.213 C 196.591 65.419,200.950 65.642,206.400 67.908 M193.273 81.538 C 192.103 81.955,190.573 82.827,189.873 83.476 C 189.173 84.125,187.558 85.271,186.284 86.022 C 183.656 87.572,183.177 88.182,181.831 91.691 C 176.301 106.106,176.221 106.209,168.347 109.162 C 157.668 113.168,157.512 113.262,155.580 116.922 C 154.860 118.285,153.776 120.131,153.169 121.024 C 150.438 125.046,149.962 131.986,152.200 135.161 C 157.595 142.814,155.743 149.292,147.612 151.207 C 144.271 151.994,141.614 153.314,138.987 155.493 C 137.674 156.582,135.771 157.953,134.759 158.540 C 132.458 159.874,132.048 160.346,130.223 163.758 C 129.412 165.274,128.136 167.317,127.388 168.297 C 122.203 175.088,122.419 192.126,127.781 199.259 C 128.773 200.579,130.167 202.753,130.881 204.091 C 131.867 205.942,132.672 206.840,134.248 207.848 C 135.386 208.576,137.209 210.033,138.298 211.086 C 140.769 213.475,143.839 214.690,149.327 215.452 C 151.567 215.763,154.660 216.272,156.200 216.583 C 159.419 217.233,233.057 217.428,239.238 216.803 C 248.594 215.856,254.956 214.114,257.863 211.704 C 258.928 210.821,260.700 209.480,261.800 208.724 C 262.988 207.908,264.576 206.227,265.710 204.587 C 266.760 203.067,268.045 201.368,268.564 200.812 C 273.692 195.319,274.097 173.099,269.188 166.600 C 268.523 165.720,267.083 163.756,265.988 162.235 C 264.772 160.547,263.181 158.931,261.899 158.084 C 260.744 157.322,259.080 156.022,258.200 155.196 C 256.128 153.250,255.419 152.908,251.045 151.738 C 243.961 149.844,241.251 144.171,244.150 137.303 C 246.225 132.387,246.394 124.684,244.507 121.013 C 242.499 117.108,238.247 112.836,235.361 111.827 C 234.283 111.450,232.140 110.532,230.600 109.787 C 229.060 109.042,226.720 108.043,225.400 107.566 C 220.671 105.858,219.593 104.439,218.499 98.482 C 218.110 96.361,217.546 94.689,216.945 93.876 C 216.427 93.174,215.507 91.815,214.901 90.855 C 213.261 88.256,211.216 86.026,209.830 85.329 C 209.154 84.988,207.374 83.881,205.876 82.868 C 202.545 80.616,197.393 80.072,193.273 81.538 " stroke="none" fill="#201f43" fill-rule="evenodd"></path><path id="path1" d="M165.400 0.382 C 160.408 0.618,158.091 1.177,158.612 2.020 C 158.749 2.241,157.956 2.412,156.724 2.429 C 153.342 2.476,150.320 3.021,149.842 3.672 C 149.564 4.048,148.358 4.375,146.600 4.550 C 144.712 4.737,143.637 5.044,143.300 5.490 C 143.025 5.855,142.800 6.001,142.800 5.814 C 142.800 5.628,142.485 5.753,142.100 6.091 C 141.712 6.431,140.348 6.788,139.040 6.891 C 137.372 7.021,136.524 7.289,136.148 7.804 C 135.802 8.277,134.806 8.642,133.308 8.845 C 131.815 9.048,130.786 9.424,130.390 9.913 C 129.991 10.406,129.022 10.756,127.590 10.923 C 126.109 11.096,125.188 11.437,124.746 11.977 C 124.383 12.420,123.345 12.895,122.419 13.043 C 121.293 13.223,120.543 13.620,120.127 14.255 C 119.683 14.933,119.134 15.200,118.185 15.200 C 117.357 15.200,116.417 15.574,115.673 16.200 C 115.019 16.750,114.028 17.200,113.471 17.200 C 112.913 17.200,112.219 17.438,111.929 17.729 C 111.638 18.019,111.220 18.334,111.000 18.429 C 110.780 18.523,110.645 18.735,110.700 18.900 C 110.755 19.065,110.364 19.200,109.831 19.200 C 109.298 19.200,108.325 19.651,107.671 20.202 C 107.016 20.753,105.915 21.317,105.225 21.455 C 104.536 21.593,103.717 22.069,103.406 22.512 C 103.087 22.969,102.180 23.425,101.321 23.563 C 100.271 23.731,99.678 24.085,99.405 24.703 C 99.169 25.239,98.658 25.600,98.134 25.600 C 97.652 25.600,96.974 25.883,96.629 26.229 C 96.283 26.574,96.000 26.754,96.000 26.629 C 96.000 26.503,95.640 26.760,95.200 27.200 C 94.760 27.640,94.159 28.000,93.864 28.000 C 93.570 28.000,93.123 28.450,92.873 29.000 C 92.537 29.738,92.108 30.000,91.237 30.000 C 90.096 30.000,88.800 30.866,88.800 31.629 C 88.800 31.833,88.436 32.000,87.991 32.000 C 87.525 32.000,86.997 32.408,86.743 32.964 C 86.460 33.586,85.846 34.015,85.019 34.170 C 84.313 34.303,83.346 34.859,82.870 35.405 C 82.394 35.952,81.746 36.400,81.430 36.400 C 81.113 36.400,80.743 36.751,80.606 37.180 C 80.470 37.608,80.003 38.072,79.569 38.210 C 79.134 38.348,78.493 38.897,78.143 39.430 C 77.794 39.964,77.286 40.400,77.015 40.400 C 76.395 40.400,74.741 41.808,75.026 42.093 C 75.142 42.209,74.734 42.428,74.119 42.579 C 73.028 42.847,72.246 43.451,70.081 45.700 C 69.498 46.305,68.795 46.800,68.519 46.800 C 68.242 46.800,67.902 47.250,67.764 47.800 C 67.608 48.421,67.230 48.800,66.764 48.800 C 66.306 48.800,65.921 49.175,65.773 49.765 C 65.631 50.330,65.141 50.828,64.592 50.966 C 64.076 51.096,63.542 51.552,63.406 51.980 C 63.270 52.409,62.817 52.867,62.400 53.000 C 61.983 53.133,61.533 53.583,61.400 54.000 C 61.267 54.417,60.809 54.870,60.380 55.006 C 59.952 55.142,59.492 55.691,59.358 56.227 C 59.216 56.789,58.821 57.200,58.421 57.200 C 58.040 57.200,57.523 57.650,57.273 58.200 C 57.022 58.750,56.539 59.200,56.200 59.200 C 55.861 59.200,55.379 59.647,55.131 60.192 C 54.882 60.738,54.346 61.290,53.939 61.419 C 53.533 61.548,53.200 61.826,53.200 62.036 C 53.200 62.246,52.210 63.377,51.000 64.549 C 49.790 65.721,48.800 66.866,48.800 67.093 C 48.800 67.321,48.459 67.596,48.042 67.705 C 47.625 67.814,46.974 68.555,46.596 69.352 C 46.218 70.148,45.744 70.800,45.542 70.800 C 45.340 70.800,45.060 71.115,44.920 71.500 C 44.780 71.885,44.155 72.791,43.533 73.514 C 42.910 74.237,42.400 75.071,42.400 75.367 C 42.400 75.664,42.027 76.004,41.570 76.124 C 41.114 76.243,40.645 76.706,40.529 77.152 C 40.412 77.598,39.885 78.245,39.358 78.591 C 38.831 78.936,38.400 79.563,38.400 79.985 C 38.400 80.406,37.860 81.342,37.200 82.064 C 36.540 82.787,36.000 83.608,36.000 83.889 C 36.000 84.170,35.726 84.400,35.391 84.400 C 35.057 84.400,34.564 84.895,34.298 85.500 C 34.031 86.105,33.502 86.830,33.122 87.111 C 32.743 87.393,32.316 88.239,32.175 88.992 C 32.024 89.799,31.524 90.620,30.959 90.990 C 30.432 91.336,30.000 91.964,30.000 92.386 C 30.000 92.808,29.817 93.266,29.593 93.404 C 29.370 93.542,29.308 93.851,29.455 94.089 C 29.603 94.328,29.541 94.411,29.319 94.273 C 29.096 94.136,28.573 94.693,28.157 95.511 C 27.741 96.330,27.076 97.299,26.681 97.664 C 26.285 98.029,25.857 98.974,25.728 99.764 C 25.596 100.578,25.264 101.200,24.962 101.200 C 24.245 101.200,23.600 102.484,23.600 103.909 C 23.600 104.742,23.333 105.193,22.658 105.501 C 22.005 105.798,21.643 106.381,21.477 107.401 C 21.343 108.232,20.795 109.284,20.219 109.817 C 19.496 110.488,19.200 111.174,19.200 112.181 C 19.200 113.161,19.019 113.600,18.614 113.600 C 17.805 113.600,17.200 114.873,17.200 116.574 C 17.200 117.560,17.019 118.000,16.614 118.000 C 15.869 118.000,15.200 119.237,15.200 120.616 C 15.200 121.262,14.827 121.978,14.258 122.426 C 13.568 122.968,13.249 123.725,13.069 125.246 C 12.917 126.528,12.507 127.661,11.997 128.204 C 11.530 128.700,11.028 129.985,10.843 131.155 C 10.657 132.328,10.221 133.443,9.838 133.723 C 9.396 134.046,9.076 135.042,8.915 136.597 C 8.744 138.257,8.436 139.167,7.896 139.604 C 7.314 140.075,7.066 140.925,6.901 143.015 C 6.738 145.065,6.437 146.120,5.760 147.011 C 5.109 147.869,4.758 149.036,4.556 151.011 C 4.379 152.753,4.046 153.966,3.672 154.242 C 3.005 154.732,2.474 157.768,2.429 161.336 C 2.406 163.230,2.236 163.805,1.531 164.376 C 0.194 165.458,-0.084 175.233,0.120 214.000 C 0.298 247.690,0.401 250.008,1.745 250.524 C 2.112 250.664,2.357 252.000,2.542 254.863 C 2.740 257.925,2.999 259.260,3.541 260.000 C 3.988 260.611,4.378 262.089,4.545 263.800 C 4.764 266.047,5.004 266.758,5.760 267.400 C 6.545 268.067,6.735 268.686,6.899 271.119 C 7.051 273.367,7.292 274.246,7.948 274.945 C 8.417 275.443,8.801 276.380,8.802 277.026 C 8.806 278.806,9.578 281.217,10.225 281.465 C 10.586 281.603,10.800 282.254,10.800 283.212 C 10.800 284.247,11.115 285.112,11.777 285.900 C 12.396 286.635,12.855 287.824,13.030 289.143 C 13.230 290.646,13.570 291.433,14.253 291.970 C 14.891 292.472,15.200 293.126,15.200 293.977 C 15.200 294.808,15.541 295.554,16.200 296.165 C 16.863 296.780,17.200 297.521,17.200 298.365 C 17.200 299.209,17.537 299.950,18.200 300.565 C 18.779 301.102,19.200 301.935,19.200 302.546 C 19.200 303.126,19.605 303.999,20.100 304.488 C 20.595 304.976,21.186 306.101,21.414 306.988 C 21.677 308.013,22.150 308.744,22.714 308.995 C 23.371 309.288,23.600 309.732,23.600 310.714 C 23.600 311.588,23.920 312.338,24.541 312.919 C 25.059 313.404,25.606 314.470,25.757 315.289 C 25.908 316.107,26.358 317.007,26.756 317.289 C 27.155 317.570,27.785 318.391,28.157 319.113 C 28.554 319.882,29.018 320.312,29.279 320.151 C 29.538 319.991,29.612 320.057,29.455 320.311 C 29.308 320.549,29.370 320.858,29.593 320.996 C 29.817 321.134,30.000 321.666,30.000 322.178 C 30.000 322.729,30.408 323.375,31.000 323.763 C 31.550 324.124,32.000 324.782,32.000 325.227 C 32.000 325.672,32.405 326.442,32.900 326.937 C 33.395 327.433,34.021 328.324,34.291 328.919 C 34.562 329.514,35.057 330.000,35.391 330.000 C 35.726 330.000,36.000 330.270,36.000 330.600 C 36.000 330.930,36.360 331.560,36.800 332.000 C 37.240 332.440,37.482 332.800,37.338 332.800 C 37.194 332.800,37.337 333.115,37.655 333.500 C 37.974 333.885,38.482 334.695,38.785 335.300 C 39.088 335.905,39.555 336.400,39.824 336.400 C 40.093 336.400,40.426 336.850,40.564 337.400 C 40.702 337.950,41.077 338.400,41.397 338.400 C 41.718 338.400,42.259 338.940,42.600 339.600 C 42.941 340.260,43.402 340.800,43.624 340.800 C 43.847 340.800,44.376 341.610,44.800 342.600 C 45.224 343.590,45.762 344.400,45.996 344.400 C 46.229 344.400,46.598 344.867,46.815 345.439 C 47.032 346.010,47.567 346.571,48.005 346.685 C 48.447 346.801,48.800 347.231,48.800 347.655 C 48.800 348.078,49.241 348.618,49.792 348.869 C 50.338 349.118,50.887 349.645,51.013 350.040 C 51.138 350.436,51.564 350.862,51.960 350.987 C 52.355 351.113,52.882 351.662,53.131 352.208 C 53.379 352.753,53.845 353.200,54.164 353.200 C 54.484 353.200,54.864 353.571,55.008 354.024 C 55.152 354.478,55.704 355.047,56.235 355.289 C 56.766 355.530,57.200 355.973,57.200 356.273 C 57.200 356.572,57.647 357.021,58.192 357.269 C 58.738 357.518,59.287 358.045,59.413 358.440 C 59.538 358.836,59.972 359.264,60.377 359.393 C 60.782 359.521,61.210 359.994,61.327 360.443 C 61.445 360.892,61.908 361.355,62.357 361.473 C 62.806 361.590,63.285 362.037,63.421 362.466 C 63.557 362.895,64.103 363.411,64.634 363.613 C 65.165 363.815,65.600 364.259,65.600 364.599 C 65.600 364.939,66.050 365.422,66.600 365.673 C 67.150 365.923,67.600 366.373,67.600 366.673 C 67.600 366.972,68.047 367.421,68.594 367.670 C 69.141 367.919,69.865 368.546,70.204 369.062 C 70.542 369.578,71.041 370.000,71.313 370.000 C 71.585 370.000,72.031 370.358,72.304 370.795 C 72.577 371.232,73.430 371.853,74.200 372.174 C 74.970 372.496,75.600 372.958,75.600 373.200 C 75.600 373.443,76.133 373.827,76.784 374.054 C 77.435 374.281,78.077 374.811,78.210 375.233 C 78.344 375.654,78.891 376.108,79.427 376.242 C 79.962 376.377,80.400 376.733,80.400 377.033 C 80.400 377.334,80.895 377.837,81.500 378.152 C 82.105 378.466,83.033 379.101,83.561 379.562 C 84.090 380.023,84.783 380.400,85.101 380.400 C 85.419 380.400,86.187 380.895,86.808 381.500 C 89.405 384.031,89.869 384.353,91.300 384.615 C 92.195 384.778,92.800 385.117,92.800 385.453 C 92.800 385.763,93.295 386.237,93.900 386.507 C 94.505 386.776,95.328 387.402,95.729 387.898 C 96.173 388.447,96.898 388.800,97.583 388.800 C 98.341 388.800,98.921 389.125,99.361 389.796 C 99.801 390.469,100.528 390.875,101.596 391.046 C 102.635 391.212,103.258 391.551,103.411 392.035 C 103.630 392.725,106.013 393.530,107.000 393.248 C 107.220 393.185,107.268 393.265,107.107 393.426 C 106.719 393.815,108.342 395.200,109.186 395.200 C 109.551 395.200,110.246 395.569,110.730 396.021 C 111.597 396.829,115.200 398.159,115.200 397.672 C 115.200 397.534,115.473 397.811,115.806 398.287 C 116.202 398.852,117.030 399.246,118.193 399.420 C 119.395 399.600,120.047 399.919,120.200 400.400 C 120.432 401.132,121.524 401.585,123.082 401.595 C 123.567 401.598,124.414 402.050,124.964 402.600 C 125.684 403.320,126.394 403.600,127.502 403.600 C 128.348 403.600,129.282 403.825,129.579 404.100 C 130.017 404.506,130.057 404.488,129.793 404.000 C 129.615 403.670,129.940 403.895,130.515 404.500 C 131.341 405.368,131.925 405.600,133.285 405.600 C 134.546 405.600,135.135 405.804,135.484 406.363 C 135.976 407.150,138.986 408.000,141.286 408.000 C 141.972 408.000,142.414 408.119,142.269 408.264 C 141.666 408.867,143.886 409.727,146.533 409.917 C 148.698 410.072,149.518 410.304,150.000 410.899 C 150.512 411.531,151.306 411.718,154.215 411.888 C 157.095 412.057,157.979 412.262,158.710 412.929 C 160.969 414.989,239.555 415.043,241.060 412.986 C 241.516 412.362,242.340 412.165,245.455 411.937 C 248.443 411.719,249.476 411.484,250.144 410.872 C 250.769 410.298,251.738 410.042,253.739 409.922 C 256.051 409.783,256.602 409.605,257.274 408.779 C 257.711 408.240,257.945 408.038,257.793 408.330 C 257.579 408.738,257.686 408.768,258.258 408.458 C 258.666 408.238,260.060 407.865,261.357 407.631 C 263.780 407.192,264.957 406.578,264.572 405.955 C 264.451 405.760,265.263 405.600,266.376 405.600 C 267.867 405.600,268.611 405.389,269.200 404.800 C 269.640 404.360,270.088 403.995,270.196 403.989 C 270.303 403.983,270.618 403.908,270.896 403.822 C 271.173 403.736,272.200 403.574,273.177 403.461 C 274.268 403.335,275.195 402.955,275.577 402.478 C 275.920 402.051,276.916 401.593,277.790 401.461 C 278.665 401.329,279.655 400.874,279.990 400.450 C 280.326 400.026,281.230 399.548,282.000 399.388 C 283.705 399.034,284.900 398.257,284.497 397.764 C 284.334 397.564,284.345 397.515,284.521 397.654 C 285.036 398.062,288.269 396.931,289.173 396.027 C 289.628 395.572,290.320 395.200,290.711 395.200 C 291.668 395.200,293.272 394.041,292.977 393.563 C 292.847 393.352,292.889 393.206,293.070 393.237 C 294.370 393.463,295.770 393.057,296.533 392.234 C 297.026 391.703,298.111 391.140,298.946 390.984 C 299.783 390.827,300.571 390.408,300.703 390.049 C 301.013 389.207,301.607 388.815,302.600 388.799 C 303.040 388.792,303.824 388.339,304.342 387.793 C 304.860 387.247,305.531 386.800,305.833 386.800 C 306.135 386.800,306.673 386.355,307.030 385.811 C 307.410 385.230,308.223 384.719,308.999 384.574 C 309.726 384.437,310.697 383.893,311.157 383.363 C 311.618 382.833,312.237 382.400,312.533 382.400 C 312.829 382.400,313.277 381.950,313.527 381.400 C 313.801 380.798,314.315 380.400,314.818 380.400 C 315.871 380.400,317.285 379.662,317.028 379.246 C 316.922 379.073,317.457 378.635,318.217 378.272 C 318.978 377.910,319.600 377.435,319.600 377.217 C 319.600 376.999,320.140 376.541,320.800 376.200 C 321.460 375.859,322.000 375.334,322.000 375.033 C 322.000 374.733,322.466 374.370,323.034 374.227 C 323.603 374.084,324.497 373.539,325.021 373.016 C 325.544 372.492,326.294 372.004,326.686 371.930 C 327.079 371.856,327.575 371.399,327.788 370.914 C 328.001 370.429,328.541 369.980,328.988 369.916 C 329.435 369.852,329.978 369.395,330.195 368.900 C 330.412 368.405,330.722 368.000,330.884 368.000 C 331.297 368.000,334.800 364.454,334.800 364.036 C 334.800 363.848,335.173 363.596,335.630 363.476 C 336.086 363.357,336.557 362.886,336.676 362.430 C 336.798 361.964,337.221 361.600,337.639 361.600 C 338.093 361.600,338.479 361.224,338.626 360.638 C 338.759 360.109,339.226 359.582,339.664 359.467 C 340.101 359.353,340.557 358.886,340.676 358.430 C 340.796 357.973,341.046 357.600,341.233 357.600 C 341.420 357.600,342.125 357.060,342.800 356.400 C 343.475 355.740,344.198 355.200,344.406 355.200 C 344.614 355.200,344.893 354.767,345.026 354.238 C 345.159 353.709,345.626 353.182,346.064 353.067 C 346.501 352.953,346.951 352.508,347.064 352.078 C 347.176 351.649,347.703 351.099,348.234 350.857 C 348.765 350.615,349.200 350.155,349.200 349.836 C 349.200 349.516,349.570 349.136,350.023 348.993 C 350.476 348.849,351.011 348.297,351.213 347.766 C 351.415 347.235,351.855 346.800,352.190 346.800 C 352.526 346.800,352.800 346.626,352.800 346.414 C 352.800 346.202,353.310 345.437,353.933 344.714 C 354.946 343.538,355.668 342.285,355.765 341.533 C 355.784 341.387,355.964 341.117,356.164 340.933 C 356.378 340.737,356.405 340.847,356.229 341.200 C 356.065 341.530,356.302 341.350,356.756 340.800 C 357.211 340.250,357.586 339.587,357.591 339.327 C 357.596 339.067,357.960 338.740,358.400 338.600 C 358.841 338.460,359.409 337.953,359.664 337.473 C 359.919 336.993,360.458 336.365,360.863 336.077 C 361.269 335.790,361.600 335.250,361.601 334.877 C 361.601 334.505,362.141 333.570,362.800 332.800 C 363.459 332.030,363.999 331.106,363.999 330.747 C 364.000 330.387,364.341 330.004,364.758 329.895 C 365.175 329.786,365.819 329.059,366.189 328.279 C 366.559 327.500,367.101 326.770,367.393 326.658 C 367.685 326.546,368.046 325.900,368.195 325.224 C 368.343 324.547,368.790 323.820,369.187 323.607 C 369.583 323.395,370.030 322.733,370.180 322.137 C 370.330 321.541,370.890 320.533,371.426 319.896 C 371.962 319.260,372.400 318.553,372.400 318.327 C 372.400 318.100,372.850 317.561,373.400 317.129 C 374.034 316.630,374.400 315.939,374.400 315.241 C 374.400 314.598,374.797 313.767,375.353 313.244 C 375.891 312.739,376.415 311.664,376.558 310.774 C 376.704 309.859,377.032 309.200,377.341 309.200 C 377.955 309.200,378.800 307.542,378.800 306.339 C 378.800 305.886,379.250 305.161,379.800 304.729 C 380.507 304.172,380.800 303.554,380.800 302.617 C 380.800 301.645,381.066 301.117,381.800 300.637 C 382.581 300.125,382.800 299.643,382.800 298.437 C 382.800 297.255,383.022 296.747,383.745 296.273 C 384.353 295.875,384.776 295.111,384.934 294.127 C 385.078 293.237,385.509 292.396,385.969 292.110 C 386.548 291.750,386.830 290.985,387.027 289.240 C 387.231 287.443,387.530 286.658,388.248 286.033 C 388.961 285.413,389.200 284.794,389.200 283.567 C 389.200 282.391,389.434 281.738,390.030 281.257 C 390.648 280.755,390.917 279.952,391.085 278.091 C 391.254 276.225,391.541 275.368,392.226 274.683 C 392.902 274.007,393.215 273.093,393.423 271.184 C 393.578 269.763,393.906 268.340,394.152 268.023 C 394.508 267.565,394.477 267.510,394.000 267.758 C 393.670 267.929,393.832 267.717,394.361 267.287 C 395.170 266.629,395.362 266.022,395.571 263.462 C 395.760 261.145,395.998 260.290,396.568 259.873 C 397.191 259.417,397.346 258.634,397.501 255.163 C 397.663 251.531,397.794 250.915,398.531 250.332 C 399.816 249.316,400.076 239.867,399.909 200.200 C 399.761 164.900,399.770 165.092,398.176 163.800 C 397.867 163.549,397.615 161.864,397.502 159.290 C 397.347 155.783,397.195 155.046,396.460 154.264 C 395.810 153.572,395.600 152.846,395.600 151.288 C 395.600 149.184,394.545 146.263,393.924 146.647 C 393.735 146.764,393.620 146.711,393.668 146.530 C 394.019 145.208,393.036 140.672,392.222 139.859 C 391.563 139.200,391.261 138.339,391.129 136.747 C 391.000 135.188,390.692 134.292,390.073 133.673 C 389.472 133.072,389.200 132.310,389.200 131.231 C 389.200 130.172,388.895 129.294,388.261 128.531 C 387.701 127.857,387.215 126.601,387.058 125.423 C 386.900 124.239,386.449 123.078,385.935 122.531 C 385.463 122.029,384.968 120.938,384.835 120.109 C 384.669 119.071,384.313 118.477,383.697 118.205 C 383.026 117.910,382.800 117.474,382.800 116.479 C 382.800 114.863,382.179 113.600,381.386 113.600 C 380.981 113.600,380.800 113.161,380.800 112.181 C 380.800 111.181,380.505 110.488,379.800 109.835 C 379.227 109.304,378.800 108.464,378.800 107.868 C 378.800 107.251,378.311 106.327,377.600 105.600 C 376.823 104.805,376.400 103.962,376.400 103.209 C 376.400 102.472,376.085 101.825,375.540 101.443 C 375.032 101.087,374.581 100.221,374.437 99.321 C 374.269 98.271,373.915 97.678,373.297 97.405 C 372.803 97.188,372.400 96.708,372.400 96.339 C 372.400 95.969,371.905 95.278,371.300 94.804 C 370.695 94.329,370.401 94.040,370.647 94.161 C 370.893 94.283,370.724 93.576,370.271 92.591 C 369.818 91.606,369.240 90.800,368.987 90.800 C 368.734 90.800,368.313 90.087,368.052 89.214 C 367.790 88.342,367.243 87.396,366.836 87.110 C 366.429 86.825,366.028 86.233,365.945 85.796 C 365.863 85.358,365.416 84.833,364.952 84.629 C 364.489 84.424,363.902 83.685,363.649 82.986 C 363.397 82.287,362.832 81.391,362.395 80.995 C 361.958 80.600,361.600 80.044,361.600 79.761 C 361.600 79.477,361.253 79.002,360.829 78.705 C 360.405 78.408,359.836 77.678,359.565 77.083 C 359.294 76.487,358.826 76.000,358.526 76.000 C 358.226 76.000,357.813 75.561,357.609 75.024 C 357.405 74.488,356.890 73.862,356.465 73.635 C 356.040 73.407,355.569 72.721,355.419 72.111 C 355.269 71.500,354.810 70.640,354.399 70.200 C 353.988 69.760,353.010 68.719,352.226 67.887 C 351.442 67.054,350.800 66.199,350.800 65.987 C 350.800 65.774,350.526 65.600,350.191 65.600 C 349.857 65.600,349.378 65.150,349.127 64.600 C 348.877 64.050,348.427 63.600,348.127 63.600 C 347.828 63.600,347.379 63.153,347.131 62.608 C 346.882 62.062,346.365 61.516,345.982 61.394 C 345.600 61.273,345.190 60.806,345.073 60.357 C 344.955 59.908,344.508 59.449,344.078 59.336 C 343.649 59.224,343.099 58.697,342.857 58.166 C 342.615 57.635,342.139 57.200,341.799 57.200 C 341.459 57.200,341.015 56.765,340.813 56.234 C 340.611 55.703,340.095 55.157,339.666 55.021 C 339.237 54.885,338.790 54.406,338.673 53.957 C 338.555 53.508,338.103 53.047,337.667 52.933 C 337.231 52.819,336.781 52.369,336.667 51.933 C 336.553 51.497,336.108 51.049,335.678 50.936 C 335.249 50.824,334.699 50.297,334.457 49.766 C 334.215 49.235,333.739 48.800,333.399 48.800 C 333.059 48.800,332.609 48.350,332.400 47.800 C 332.191 47.250,331.818 46.800,331.570 46.800 C 331.323 46.800,330.613 46.305,329.992 45.700 C 327.990 43.748,327.023 42.974,325.869 42.397 C 325.247 42.086,324.566 41.510,324.355 41.116 C 324.144 40.722,323.614 40.400,323.176 40.400 C 322.703 40.400,322.231 40.009,322.013 39.434 C 321.811 38.903,321.275 38.351,320.822 38.207 C 320.370 38.063,319.813 37.598,319.586 37.173 C 319.358 36.748,318.934 36.400,318.644 36.400 C 318.354 36.400,317.623 35.942,317.018 35.382 C 316.414 34.822,315.414 34.263,314.795 34.139 C 314.134 34.007,313.586 33.590,313.465 33.127 C 313.352 32.695,312.894 32.245,312.448 32.129 C 312.002 32.012,311.355 31.485,311.009 30.958 C 310.582 30.305,310.005 30.000,309.200 30.000 C 308.386 30.000,307.818 29.694,307.373 29.016 C 307.019 28.474,306.340 27.908,305.864 27.758 C 305.389 27.608,304.770 27.158,304.489 26.759 C 304.207 26.359,303.361 25.916,302.608 25.775 C 301.801 25.624,300.980 25.124,300.610 24.559 C 300.185 23.911,299.604 23.600,298.819 23.600 C 297.723 23.600,296.400 22.734,296.400 22.017 C 296.400 21.736,294.992 21.331,293.306 21.127 C 293.034 21.094,292.716 20.764,292.598 20.394 C 292.481 20.025,291.668 19.507,290.792 19.245 C 289.917 18.983,289.200 18.624,289.200 18.448 C 289.200 17.969,287.306 17.200,286.127 17.200 C 285.537 17.200,284.694 16.770,284.165 16.200 C 283.510 15.493,282.820 15.200,281.811 15.200 C 280.694 15.200,280.288 14.992,279.948 14.246 C 279.611 13.507,279.094 13.236,277.652 13.045 C 276.424 12.882,275.624 12.531,275.301 12.013 C 274.863 11.311,271.377 10.421,270.270 10.728 C 270.089 10.779,270.042 10.655,270.167 10.454 C 270.525 9.875,267.842 8.800,266.040 8.800 C 265.138 8.800,264.445 8.665,264.500 8.500 C 264.555 8.335,264.440 8.170,264.245 8.134 C 264.049 8.098,263.756 7.852,263.592 7.587 C 263.429 7.323,262.143 6.987,260.736 6.842 C 258.904 6.652,257.935 6.335,257.324 5.724 C 256.700 5.100,255.737 4.796,253.736 4.590 C 251.968 4.408,250.717 4.051,250.200 3.582 C 249.618 3.053,248.420 2.776,245.800 2.565 C 243.136 2.350,241.914 2.063,241.099 1.461 C 239.340 0.162,186.151 -0.596,165.400 0.382 M217.800 27.595 C 224.495 28.323,227.650 28.986,235.000 31.210 C 236.540 31.676,240.336 32.743,243.435 33.581 C 249.084 35.109,250.876 35.817,254.600 37.995 C 255.700 38.638,258.097 39.642,259.927 40.226 C 261.929 40.865,263.920 41.824,264.927 42.634 C 266.838 44.171,271.047 46.445,273.387 47.205 C 274.260 47.488,275.880 48.562,276.987 49.592 C 278.094 50.622,280.124 52.138,281.498 52.961 C 282.872 53.783,284.942 55.306,286.098 56.344 C 287.254 57.383,289.010 58.844,290.000 59.592 C 290.990 60.340,292.896 61.953,294.235 63.176 C 295.574 64.399,297.944 66.523,299.501 67.897 C 301.059 69.270,303.786 72.274,305.561 74.573 C 307.335 76.872,309.033 78.899,309.334 79.077 C 309.634 79.254,310.572 80.390,311.417 81.600 C 312.262 82.810,313.819 84.733,314.875 85.874 C 315.953 87.038,317.383 89.233,318.132 90.874 C 318.867 92.483,319.799 94.070,320.203 94.400 C 321.505 95.463,323.888 99.515,324.994 102.548 C 325.594 104.192,326.760 106.334,327.626 107.382 C 329.028 109.079,332.000 116.622,332.000 118.485 C 332.000 118.759,332.613 119.978,333.363 121.192 C 335.726 125.022,337.885 133.855,339.816 147.600 C 340.172 150.130,340.915 154.180,341.468 156.600 C 342.648 161.765,342.661 172.876,341.490 176.413 C 341.160 177.411,340.679 179.931,340.420 182.013 C 340.161 184.096,339.436 188.050,338.809 190.800 C 338.181 193.550,337.198 197.870,336.623 200.400 C 335.805 204.004,335.200 205.631,333.830 207.914 C 332.258 210.534,331.777 211.870,330.416 217.402 C 330.199 218.284,329.522 219.744,328.911 220.646 C 328.300 221.549,327.239 223.121,326.553 224.138 C 325.810 225.241,325.108 226.995,324.816 228.479 C 324.247 231.372,322.736 234.513,320.449 237.552 C 319.559 238.735,318.462 240.811,318.012 242.164 C 317.561 243.518,316.561 245.520,315.788 246.613 C 312.668 251.027,311.666 252.700,311.042 254.537 C 310.109 257.284,309.445 258.435,308.006 259.800 C 307.310 260.460,305.991 262.440,305.074 264.200 C 304.158 265.960,302.523 268.556,301.441 269.968 C 300.359 271.381,298.801 273.901,297.978 275.568 C 297.156 277.236,295.735 279.320,294.821 280.200 C 293.907 281.080,292.550 282.880,291.807 284.200 C 291.063 285.520,289.507 287.770,288.347 289.200 C 286.505 291.473,286.120 292.276,285.284 295.585 C 284.156 300.048,282.995 302.481,280.575 305.452 C 279.599 306.650,278.421 308.375,277.956 309.286 C 277.492 310.196,276.266 311.855,275.232 312.971 C 274.198 314.087,272.784 315.900,272.090 317.000 C 271.396 318.100,270.124 319.741,269.265 320.646 C 268.406 321.552,266.931 323.442,265.988 324.846 C 265.046 326.251,263.341 328.480,262.200 329.800 C 261.059 331.120,259.386 333.376,258.482 334.813 C 257.578 336.250,256.202 337.933,255.423 338.554 C 254.645 339.174,253.389 340.699,252.632 341.941 C 251.876 343.183,250.255 345.148,249.030 346.306 C 247.805 347.464,246.321 349.174,245.733 350.106 C 245.146 351.038,243.737 352.790,242.603 354.000 C 241.468 355.210,240.109 356.830,239.582 357.600 C 239.055 358.370,237.415 360.283,235.938 361.852 C 234.460 363.420,232.618 365.695,231.843 366.906 C 231.068 368.118,229.641 369.804,228.673 370.655 C 227.704 371.505,226.190 373.196,225.307 374.413 C 224.425 375.631,223.064 377.114,222.282 377.710 C 221.501 378.306,220.228 379.837,219.453 381.113 C 218.652 382.432,217.252 384.002,216.209 384.750 C 215.201 385.475,213.643 387.059,212.748 388.271 C 207.683 395.126,187.862 394.525,183.139 387.373 C 182.116 385.823,180.644 384.071,179.868 383.479 C 179.092 382.887,177.470 381.007,176.265 379.301 C 175.059 377.596,173.496 375.660,172.792 375.000 C 171.208 373.514,163.788 365.120,162.319 363.152 C 161.725 362.356,160.493 361.006,159.580 360.152 C 158.668 359.298,157.236 357.610,156.398 356.400 C 155.560 355.190,153.946 353.300,152.812 352.200 C 151.678 351.100,150.145 349.209,149.405 347.998 C 148.666 346.786,147.498 345.380,146.811 344.871 C 146.123 344.363,144.736 342.654,143.729 341.074 C 142.721 339.493,141.145 337.390,140.227 336.400 C 139.309 335.410,137.640 333.250,136.518 331.600 C 135.396 329.950,133.636 327.790,132.606 326.800 C 131.576 325.810,130.313 324.190,129.800 323.200 C 129.287 322.210,128.032 320.590,127.010 319.600 C 125.989 318.610,124.603 316.842,123.930 315.670 C 123.258 314.499,121.868 312.582,120.843 311.410 C 117.772 307.900,111.200 296.886,111.200 295.249 C 111.200 293.087,109.411 289.423,107.296 287.256 C 106.016 285.943,104.640 283.997,104.005 282.600 C 103.406 281.280,102.110 279.300,101.127 278.200 C 100.144 277.100,98.419 274.490,97.294 272.400 C 96.170 270.310,94.588 267.970,93.779 267.200 C 92.913 266.375,91.614 264.322,90.617 262.200 C 89.686 260.220,88.254 257.804,87.436 256.830 C 86.617 255.857,85.127 253.337,84.124 251.230 C 83.122 249.124,81.634 246.500,80.817 245.400 C 80.001 244.300,78.391 241.257,77.239 238.638 C 76.088 236.019,74.730 233.319,74.220 232.638 C 72.949 230.938,72.186 229.362,70.767 225.501 C 70.100 223.686,68.826 221.079,67.936 219.709 C 66.473 217.457,64.027 210.637,64.007 208.753 C 64.003 208.397,62.994 206.109,61.764 203.668 C 59.932 200.035,59.420 198.557,58.937 195.515 C 58.612 193.472,57.895 189.280,57.342 186.200 C 55.706 177.089,55.628 176.210,55.590 166.600 C 55.559 158.629,55.686 156.572,56.545 151.200 C 57.090 147.790,57.833 142.840,58.197 140.200 C 59.119 133.510,60.154 129.576,61.753 126.681 C 63.110 124.224,63.844 122.100,64.976 117.344 C 65.363 115.718,66.300 113.754,67.744 111.538 C 69.058 109.523,70.349 106.887,70.986 104.917 C 71.569 103.117,72.518 100.959,73.095 100.122 C 76.013 95.891,76.938 94.386,78.082 92.008 C 78.768 90.582,80.177 88.512,81.214 87.408 C 82.251 86.304,83.504 84.590,83.999 83.600 C 84.493 82.610,85.919 80.720,87.167 79.400 C 88.415 78.080,90.054 76.130,90.809 75.068 C 91.564 74.005,92.842 72.650,93.649 72.056 C 94.456 71.463,95.860 70.037,96.769 68.888 C 97.677 67.738,99.104 66.346,99.939 65.793 C 100.775 65.240,102.298 63.815,103.325 62.626 C 104.351 61.437,106.147 59.917,107.315 59.249 C 108.484 58.580,110.026 57.303,110.744 56.410 C 111.505 55.463,113.058 54.278,114.475 53.562 C 115.809 52.889,117.752 51.542,118.792 50.569 C 119.950 49.486,122.215 48.084,124.634 46.954 C 126.896 45.897,129.421 44.356,130.538 43.351 C 131.896 42.131,133.179 41.407,134.746 40.977 C 139.088 39.785,141.820 38.675,144.180 37.144 C 146.428 35.685,150.521 34.192,155.000 33.198 C 156.100 32.954,159.790 31.963,163.200 30.996 C 178.307 26.713,198.254 25.471,217.800 27.595 M192.800 67.213 C 191.370 67.889,188.597 68.894,186.638 69.445 C 182.278 70.672,180.288 71.658,178.362 73.549 C 177.549 74.347,176.121 75.720,175.189 76.600 C 171.757 79.840,168.787 83.927,167.132 87.691 C 164.496 93.687,163.653 94.523,157.836 96.904 C 156.040 97.640,153.878 98.902,152.836 99.823 C 151.826 100.716,150.145 102.052,149.100 102.791 C 148.055 103.531,147.200 104.256,147.200 104.404 C 147.200 104.552,145.951 106.043,144.424 107.718 C 141.064 111.404,141.179 111.195,138.997 117.564 C 136.508 124.832,136.116 127.246,136.907 130.453 C 137.370 132.330,137.444 133.557,137.189 135.118 C 136.487 139.414,135.712 140.623,132.489 142.455 C 131.230 143.171,129.210 144.673,128.000 145.793 C 126.790 146.913,124.946 148.509,123.902 149.340 C 122.858 150.171,121.433 151.694,120.736 152.725 C 120.038 153.756,118.762 155.320,117.899 156.200 C 116.003 158.134,114.811 160.414,113.621 164.383 C 113.129 166.023,112.133 168.544,111.408 169.983 C 107.420 177.903,107.453 187.640,111.498 196.857 C 112.595 199.356,113.705 202.277,113.964 203.349 C 114.651 206.185,116.220 209.051,118.355 211.367 C 119.386 212.485,120.742 214.165,121.369 215.100 C 121.996 216.035,122.658 216.800,122.841 216.800 C 123.024 216.800,124.516 218.124,126.156 219.743 C 128.241 221.801,130.199 223.254,132.669 224.573 C 134.611 225.610,137.115 227.036,138.234 227.741 C 142.650 230.524,149.093 231.287,169.478 231.440 C 193.168 231.619,190.918 228.440,190.823 261.600 C 190.727 295.007,191.305 300.546,195.159 303.099 C 197.656 304.754,200.535 304.185,203.083 301.533 C 205.717 298.790,205.649 299.725,205.569 267.360 C 205.503 240.821,205.558 237.932,206.174 236.079 C 206.920 233.833,209.042 231.625,210.514 231.563 C 211.001 231.542,217.520 231.549,225.000 231.577 C 246.897 231.660,254.400 230.700,259.900 227.109 C 261.564 226.023,263.860 224.721,265.004 224.215 C 269.552 222.204,279.210 212.099,281.160 207.311 C 281.821 205.688,283.005 203.483,283.791 202.412 C 288.618 195.837,289.197 173.386,284.724 166.272 C 283.869 164.912,282.716 162.810,282.162 161.600 C 281.608 160.390,280.849 158.738,280.477 157.928 C 278.819 154.324,268.809 144.415,264.893 142.500 C 260.803 140.501,260.703 140.197,260.644 129.600 C 260.597 121.346,260.048 118.749,257.594 115.200 C 257.214 114.650,256.209 112.868,255.360 111.241 C 252.499 105.758,244.895 99.080,238.911 96.794 C 233.676 94.795,231.459 92.261,228.432 84.816 C 226.241 79.428,217.868 71.685,212.600 70.175 C 211.280 69.797,208.490 68.777,206.400 67.908 C 200.950 65.642,196.591 65.419,192.800 67.213 M205.876 82.868 C 207.374 83.881,209.154 84.988,209.830 85.329 C 211.216 86.026,213.261 88.256,214.901 90.855 C 215.507 91.815,216.427 93.174,216.945 93.876 C 217.546 94.689,218.110 96.361,218.499 98.482 C 219.593 104.439,220.671 105.858,225.400 107.566 C 226.720 108.043,229.060 109.042,230.600 109.787 C 232.140 110.532,234.283 111.450,235.361 111.827 C 238.247 112.836,242.499 117.108,244.507 121.013 C 246.394 124.684,246.225 132.387,244.150 137.303 C 241.251 144.171,243.961 149.844,251.045 151.738 C 255.419 152.908,256.128 153.250,258.200 155.196 C 259.080 156.022,260.744 157.322,261.899 158.084 C 263.181 158.931,264.772 160.547,265.988 162.235 C 267.083 163.756,268.523 165.720,269.188 166.600 C 274.097 173.099,273.692 195.319,268.564 200.812 C 268.045 201.368,266.760 203.067,265.710 204.587 C 264.576 206.227,262.988 207.908,261.800 208.724 C 260.700 209.480,258.928 210.821,257.863 211.704 C 254.956 214.114,248.594 215.856,239.238 216.803 C 233.057 217.428,159.419 217.233,156.200 216.583 C 154.660 216.272,151.567 215.763,149.327 215.452 C 143.839 214.690,140.769 213.475,138.298 211.086 C 137.209 210.033,135.386 208.576,134.248 207.848 C 132.672 206.840,131.867 205.942,130.881 204.091 C 130.167 202.753,128.773 200.579,127.781 199.259 C 122.419 192.126,122.203 175.088,127.388 168.297 C 128.136 167.317,129.412 165.274,130.223 163.758 C 132.048 160.346,132.458 159.874,134.759 158.540 C 135.771 157.953,137.674 156.582,138.987 155.493 C 141.614 153.314,144.271 151.994,147.612 151.207 C 155.743 149.292,157.595 142.814,152.200 135.161 C 149.962 131.986,150.438 125.046,153.169 121.024 C 153.776 120.131,154.860 118.285,155.580 116.922 C 157.512 113.262,157.668 113.168,168.347 109.162 C 173.730 107.144,175.007 106.317,176.606 103.817 C 177.795 101.959,178.677 99.911,181.831 91.691 C 183.177 88.182,183.656 87.572,186.284 86.022 C 187.558 85.271,189.173 84.125,189.873 83.476 C 193.520 80.094,201.334 79.797,205.876 82.868 " stroke="none" fill="#00c9c8" fill-rule="evenodd"></path></g></svg>